<svg width="145" height="24" viewBox="0 0 145 24" fill="none" xmlns="http://www.w3.org/2000/svg">
<path d="M8.63068 23H0.896307V1.18182H8.6946C10.8892 1.18182 12.7784 1.61861 14.3622 2.49219C15.946 3.35866 17.1641 4.60511 18.0163 6.23153C18.8757 7.85795 19.3054 9.80398 19.3054 12.0696C19.3054 14.3423 18.8757 16.2955 18.0163 17.929C17.1641 19.5625 15.9389 20.8161 14.3409 21.6896C12.75 22.5632 10.8466 23 8.63068 23ZM5.50923 19.0476H8.43892C9.80256 19.0476 10.9496 18.8061 11.88 18.3232C12.8175 17.8331 13.5206 17.0767 13.9893 16.054C14.4652 15.0241 14.7031 13.696 14.7031 12.0696C14.7031 10.4574 14.4652 9.13991 13.9893 8.11719C13.5206 7.09446 12.821 6.34162 11.8906 5.85866C10.9602 5.37571 9.81321 5.13423 8.44957 5.13423H5.50923V19.0476ZM22.7225 23V1.18182H37.4242V4.98508H27.3354V10.1839H36.6678V13.9872H27.3354V19.1967H37.4668V23H22.7225ZM45.0334 1.18182L50.3068 17.7585H50.5092L55.7933 1.18182H60.907L53.3857 23H47.4411L39.9091 1.18182H45.0334Z" fill="#9747FF"/>
<path d="M64.5344 23V1.18182H71.896C73.3164 1.18182 74.4989 1.4304 75.4435 1.92756C76.3952 2.42472 77.109 3.10298 77.5849 3.96236C78.0607 4.82173 78.2987 5.7983 78.2987 6.89205C78.2987 7.80114 78.146 8.57884 77.8406 9.22514C77.5352 9.87145 77.1197 10.3935 76.5941 10.7912C76.0685 11.1889 75.4826 11.4766 74.8363 11.6541V11.8246C75.5394 11.8743 76.2212 12.1229 76.8817 12.5703C77.5423 13.0107 78.0856 13.6286 78.5117 14.424C78.9379 15.2195 79.1509 16.1712 79.1509 17.2791C79.1509 18.38 78.9059 19.3636 78.4158 20.2301C77.9258 21.0895 77.1729 21.7678 76.1573 22.2649C75.1488 22.755 73.8633 23 72.3008 23H64.5344ZM66.5266 21.2102H72.3008C73.984 21.2102 75.2269 20.8374 76.0295 20.0916C76.8391 19.3459 77.244 18.4084 77.244 17.2791C77.244 16.4482 77.0415 15.6953 76.6367 15.0206C76.239 14.3388 75.6744 13.799 74.9428 13.4013C74.2184 13.0036 73.3661 12.8047 72.386 12.8047H66.5266V21.2102ZM66.5266 11.0362H72.0771C72.9364 11.0362 73.6893 10.8587 74.3356 10.5036C74.9819 10.1484 75.4862 9.65838 75.8484 9.03338C76.2106 8.40838 76.3917 7.6946 76.3917 6.89205C76.3917 5.73437 76.0153 4.79332 75.2624 4.06889C74.5096 3.33736 73.3874 2.97159 71.896 2.97159H66.5266V11.0362ZM101.845 12.0909C101.845 14.3636 101.441 16.3416 100.631 18.0249C99.8212 19.701 98.7061 21.0007 97.2857 21.924C95.8723 22.8402 94.2459 23.2983 92.4064 23.2983C90.5669 23.2983 88.937 22.8402 87.5165 21.924C86.1032 21.0007 84.9917 19.701 84.182 18.0249C83.3794 16.3416 82.9782 14.3636 82.9782 12.0909C82.9782 9.81818 83.3794 7.84375 84.182 6.16761C84.9917 4.48437 86.1067 3.18466 87.5272 2.26846C88.9476 1.34517 90.574 0.883522 92.4064 0.883522C94.2459 0.883522 95.8723 1.34517 97.2857 2.26846C98.7061 3.18466 99.8212 4.48437 100.631 6.16761C101.441 7.84375 101.845 9.81818 101.845 12.0909ZM99.9064 12.0909C99.9064 10.1378 99.5797 8.4652 98.9263 7.07315C98.2729 5.67401 97.3816 4.60511 96.2523 3.86648C95.123 3.12784 93.8411 2.75852 92.4064 2.75852C90.9789 2.75852 89.7005 3.12784 88.5712 3.86648C87.4419 4.60511 86.5471 5.67045 85.8865 7.0625C85.2331 8.45455 84.9064 10.1307 84.9064 12.0909C84.9064 14.044 85.2331 15.7166 85.8865 17.1087C86.54 18.5007 87.4313 19.5696 88.5605 20.3153C89.6898 21.054 90.9718 21.4233 92.4064 21.4233C93.8411 21.4233 95.123 21.054 96.2523 20.3153C97.3887 19.5767 98.2836 18.5114 98.937 17.1193C99.5904 15.7202 99.9135 14.044 99.9064 12.0909ZM124.55 12.0909C124.55 14.3636 124.146 16.3416 123.336 18.0249C122.526 19.701 121.411 21.0007 119.991 21.924C118.577 22.8402 116.951 23.2983 115.112 23.2983C113.272 23.2983 111.642 22.8402 110.222 21.924C108.808 21.0007 107.697 19.701 106.887 18.0249C106.085 16.3416 105.683 14.3636 105.683 12.0909C105.683 9.81818 106.085 7.84375 106.887 6.16761C107.697 4.48437 108.812 3.18466 110.232 2.26846C111.653 1.34517 113.279 0.883522 115.112 0.883522C116.951 0.883522 118.577 1.34517 119.991 2.26846C121.411 3.18466 122.526 4.48437 123.336 6.16761C124.146 7.84375 124.55 9.81818 124.55 12.0909ZM122.612 12.0909C122.612 10.1378 122.285 8.4652 121.631 7.07315C120.978 5.67401 120.087 4.60511 118.957 3.86648C117.828 3.12784 116.546 2.75852 115.112 2.75852C113.684 2.75852 112.406 3.12784 111.276 3.86648C110.147 4.60511 109.252 5.67045 108.592 7.0625C107.938 8.45455 107.612 10.1307 107.612 12.0909C107.612 14.044 107.938 15.7166 108.592 17.1087C109.245 18.5007 110.136 19.5696 111.266 20.3153C112.395 21.054 113.677 21.4233 115.112 21.4233C116.546 21.4233 117.828 21.054 118.957 20.3153C120.094 19.5767 120.989 18.5114 121.642 17.1193C122.295 15.7202 122.619 14.044 122.612 12.0909ZM129.368 23V1.18182H131.361V12.9325H131.552L142.206 1.18182H144.827L135.505 11.2706L144.784 23H142.355L134.269 12.6555L131.361 15.9155V23H129.368Z" fill="black"/>
</svg>
